<?xml version="1.0" standalone="no"?><!DOCTYPE svg PUBLIC "-//W3C//DTD SVG 1.1//EN" "http://www.w3.org/Graphics/SVG/1.1/DTD/svg11.dtd"><svg class="icon" width="200px" height="200.00px" viewBox="0 0 1024 1024" version="1.1" xmlns="http://www.w3.org/2000/svg"><path d="M-34.133-30.788h1088.922v1088.922h-1088.922z" fill="#FF350A" /><path d="M746.622 646.82c0 121.879-100.138 220.675-223.676 220.675s-223.677-98.796-223.677-220.675c0.002-121.845 223.677-490.393 223.677-490.393s223.676 368.547 223.676 490.393z" fill="#FFFFFF" /><path d="M415.954 602.886c0 15.378 12.466 27.843 27.843 27.843s27.843-12.466 27.843-27.843c0-15.378-12.466-27.843-27.843-27.843-15.378 0-27.843 12.466-27.843 27.843z" fill="#FF350A" /><path d="M590.755 602.886c0 0.002 0 0.003 0 0.005 0 15.378 12.466 27.843 27.843 27.843 15.378 0 27.843-12.466 27.843-27.843 0-0.002 0-0.004 0-0.005 0-0.001 0-0.003 0-0.005 0-15.378-12.466-27.843-27.843-27.843-15.378 0-27.843 12.466-27.843 27.843s0 0.004 0 0.005z" fill="#FF350A" /></svg>